<svg width="40" height="33" viewBox="0 0 40 33" fill="none" xmlns="http://www.w3.org/2000/svg">
<path fill-rule="evenodd" clip-rule="evenodd" d="M7.06243 23.5864C7.06243 23.883 7.00401 24.1767 6.8905 24.4507C6.77698 24.7248 6.6106 24.9738 6.40086 25.1835C6.19111 25.3933 5.94211 25.5597 5.66807 25.6732C5.39402 25.7867 5.1003 25.8451 4.80368 25.8451C4.50705 25.8451 4.21333 25.7867 3.93929 25.6732C3.66524 25.5597 3.41624 25.3933 3.2065 25.1835C2.99675 24.9738 2.83037 24.7248 2.71686 24.4507C2.60335 24.1767 2.54492 23.883 2.54492 23.5864C2.54492 22.9873 2.7829 22.4128 3.2065 21.9892C3.6301 21.5656 4.20462 21.3276 4.80368 21.3276C5.40274 21.3276 5.97726 21.5656 6.40086 21.9892C6.82446 22.4128 7.06243 22.9873 7.06243 23.5864ZM37.4556 23.5864C37.4556 24.1854 37.2176 24.7599 36.794 25.1835C36.3704 25.6071 35.7959 25.8451 35.1968 25.8451C34.5978 25.8451 34.0232 25.6071 33.5996 25.1835C33.176 24.7599 32.9381 24.1854 32.9381 23.5864C32.9381 22.9873 33.176 22.4128 33.5996 21.9892C34.0232 21.5656 34.5978 21.3276 35.1968 21.3276C35.7959 21.3276 36.3704 21.5656 36.794 21.9892C37.2176 22.4128 37.4556 22.9873 37.4556 23.5864Z" fill="#00A6ED"/>
<path fill-rule="evenodd" clip-rule="evenodd" d="M11.7943 8.96158L16.3404 15.0659L6.91943 16.1524L9.95017 9.16173C9.22108 8.87581 8.70642 8.16101 8.70642 7.33185C8.70642 6.24536 9.59277 5.35901 10.6793 5.35901C11.0997 5.36123 11.5085 5.49745 11.8463 5.74786C12.1841 5.99827 12.4332 6.34984 12.5575 6.7515C12.6818 7.15317 12.6749 7.58401 12.5376 7.98145C12.4004 8.37888 12.14 8.72222 11.7943 8.96158ZM30.0359 9.16173L33.0667 16.1524L23.6457 15.0659L28.1918 8.96158C27.6771 8.60418 27.334 8.00376 27.334 7.33185C27.334 6.24536 28.2204 5.35901 29.3069 5.35901C30.3933 5.35901 31.2797 6.24536 31.2797 7.33185C31.2797 8.16101 30.765 8.87581 30.0359 9.16173Z" fill="#E19747"/>
<path d="M40 8.70426C40 7.61777 39.1137 6.73142 38.0272 6.73142C36.9407 6.73142 36.0543 7.61777 36.0543 8.70426C36.0543 9.10454 36.183 9.49053 36.3831 9.79075C36.0686 9.79075 35.7541 9.86223 35.4539 10.0624L29.8356 13.6935C29.0922 14.1653 28.1201 13.9937 27.5911 13.279L21.3438 4.80147C21.2993 4.73325 21.2465 4.67083 21.1866 4.61562C21.6648 4.35235 22.0418 3.93752 22.2584 3.43643C22.475 2.93534 22.5188 2.37646 22.3829 1.84776C22.2469 1.31906 21.939 0.850577 21.5077 0.516062C21.0763 0.181548 20.5459 0 20 0C19.4541 0 18.9237 0.181548 18.4923 0.516062C18.061 0.850577 17.7531 1.31906 17.6172 1.84776C17.4812 2.37646 17.525 2.93534 17.7416 3.43643C17.9582 3.93752 18.3352 4.35235 18.8134 4.61562C18.7563 4.6728 18.6991 4.72999 18.6562 4.80147L12.4089 13.279C11.8942 13.9937 10.9078 14.1653 10.1644 13.6935L4.5461 10.0624C4.24589 9.86223 3.93138 9.79075 3.61687 9.79075C3.83131 9.47624 3.94568 9.10454 3.94568 8.70426C3.94568 7.61777 3.05933 6.73142 1.97284 6.73142C0.886348 6.73142 0 7.61777 0 8.70426C0 9.79075 0.886348 10.6771 1.97284 10.6771C2.04432 10.6771 2.1158 10.6771 2.17298 10.6628C1.98713 10.9916 1.91565 11.3776 2.00143 11.7922L5.71837 30.334C5.98999 31.6635 7.16226 32.6213 8.52037 32.6213H31.4796C32.8377 32.6213 34.01 31.6635 34.2816 30.334L37.9986 11.7922C38.0843 11.3776 37.9986 10.9773 37.827 10.6628C37.8985 10.6628 37.97 10.6771 38.0272 10.6771C39.1137 10.6771 40 9.79075 40 8.70426Z" fill="#FFB02E"/>
<path d="M20 27.1603C20.9479 27.1603 21.8569 26.7837 22.5272 26.1135C23.1974 25.4432 23.574 24.5342 23.574 23.5863C23.574 22.6384 23.1974 21.7294 22.5272 21.0591C21.8569 20.3889 20.9479 20.0123 20 20.0123C19.0521 20.0123 18.1431 20.3889 17.4728 21.0591C16.8026 21.7294 16.426 22.6384 16.426 23.5863C16.426 24.5342 16.8026 25.4432 17.4728 26.1135C18.1431 26.7837 19.0521 27.1603 20 27.1603Z" fill="#00A6ED"/>
<path fill-rule="evenodd" clip-rule="evenodd" d="M12.8664 23.5863C12.8664 24.155 12.6405 24.7005 12.2383 25.1026C11.8362 25.5048 11.2908 25.7307 10.722 25.7307C10.1533 25.7307 9.60786 25.5048 9.20571 25.1026C8.80356 24.7005 8.57764 24.155 8.57764 23.5863C8.57764 23.0176 8.80356 22.4722 9.20571 22.07C9.60786 21.6679 10.1533 21.4419 10.722 21.4419C11.2908 21.4419 11.8362 21.6679 12.2383 22.07C12.6405 22.4722 12.8664 23.0176 12.8664 23.5863ZM31.4511 23.5863C31.4511 24.155 31.2252 24.7005 30.823 25.1026C30.4209 25.5048 29.8755 25.7307 29.3067 25.7307C28.738 25.7307 28.1926 25.5048 27.7904 25.1026C27.3883 24.7005 27.1623 24.155 27.1623 23.5863C27.1623 23.0176 27.3883 22.4722 27.7904 22.07C28.1926 21.6679 28.738 21.4419 29.3067 21.4419C29.8755 21.4419 30.4209 21.6679 30.823 22.07C31.2252 22.4722 31.4511 23.0176 31.4511 23.5863Z" fill="#F8312F"/>
</svg>
