<svg width="98" height="100" viewBox="0 0 98 100" fill="none" xmlns="http://www.w3.org/2000/svg">
<path d="M83.1189 82.4994C92.6626 73.8287 98 61.3024 98 47.3764C98 21.2058 79.1511 0 49 0C18.8489 0 0 21.2146 0 47.3764C0 73.547 18.8489 94.7528 49 94.7528C55.7955 94.7528 62.0078 93.6701 67.5661 91.6983L72.8417 99.2158C73.0608 99.5293 73.3729 99.7665 73.7342 99.8944C74.0955 100.022 74.4879 100.034 74.8565 99.9289L89.446 95.7476C90.0115 95.5803 90.4711 95.1578 90.6743 94.5944C90.8687 94.0398 90.7892 93.4236 90.4445 92.9307L83.1189 82.4994ZM49 71.9889C33.3412 71.9889 23.5412 60.9679 23.5412 47.3764C23.5412 33.785 33.3324 22.7639 49 22.7639C64.6676 22.7639 74.4588 33.785 74.4588 47.3764C74.4588 53.2303 72.6296 58.6087 69.3158 62.8341L62.9003 53.6968C62.6805 53.3841 62.3684 53.1474 62.0073 53.0196C61.6462 52.8918 61.2541 52.8793 60.8855 52.9838L46.2871 57.1651C45.7216 57.3323 45.262 57.7549 45.0588 58.3182C44.8644 58.8728 44.9439 59.489 45.2886 59.982L53.4803 71.6456C52.0487 71.8569 50.5641 71.9889 49 71.9889Z" fill="white"/>
</svg>
